<svg xmlns="http://www.w3.org/2000/svg" viewBox="0 0 77.736 110.2">
  <defs>
    <style>
      .cls-1 {
        fill: #f9e000;
      }

      .cls-2 {
        fill: #1f1e21;
      }
    </style>
  </defs>
  <g id="banan" transform="translate(-0.03)">
    <g id="Group_7" data-name="Group 7">
      <path id="Path_6" data-name="Path 6" d="M.2,25.3v.9a.749.749,0,0,0,.1.5v.2l.3,1.5c.3,1.1.6,2.3,1,3.4A26.879,26.879,0,0,0,8,41c6.4,6.1,16.1,9.7,28.7,10.6,2.7.2,5.3.2,7.8.2a55.5,55.5,0,0,0,20.1-4.2h.1a.713.713,0,0,0,.6-.3l.1-.1a36.4,36.4,0,0,0,6.1-3.6l.1-.1a25.276,25.276,0,0,0,6-5.8.755.755,0,0,0,.1-.8l-1.2-3.8-.2-.6a.863.863,0,0,0-1.1-.6A83.157,83.157,0,0,1,62,33.7c-1,.1-2.1.1-3.1.1H53.7a93.257,93.257,0,0,1-19.8-2.4A30.407,30.407,0,0,1,15.4,19.3l-1.2-1.8A42.7,42.7,0,0,1,8.3,1.1.752.752,0,0,0,7.8.4C7.9.3,7,0,5.8,0a4.552,4.552,0,0,0-2,.5A5.554,5.554,0,0,0,1.1,3.6a.367.367,0,0,0-.1.3A24.788,24.788,0,0,0,2.3,9.5a8.918,8.918,0,0,1,.3,2.2,9.849,9.849,0,0,1-.8,2.8l-.1.2c-1,2.2-2.1,5-1.5,10.6Zm9,14.4-.1-.1,1.9-2a1.051,1.051,0,0,0,0-1.3,1.051,1.051,0,0,0-1.3,0l-1.9,2a18.258,18.258,0,0,1-1.3-1.6L8,35.2a1.051,1.051,0,0,0,0-1.3,1.051,1.051,0,0,0-1.3,0L5.5,35.2a11.782,11.782,0,0,1-1.1-1.9l1-1.1a1.051,1.051,0,0,0,0-1.3,1.051,1.051,0,0,0-1.3,0l-.5.5a1.421,1.421,0,0,1-.2-.6,7.494,7.494,0,0,1-.5-1.6l.5-.6a1.051,1.051,0,0,0,0-1.3.955.955,0,0,0-1-.2c-.1-.3-.1-.6-.2-.9V26a1.087,1.087,0,0,0-.1-.5v-.8c-.5-5.1.5-7.7,1.4-9.7a1.7,1.7,0,0,0,1.4,0c1,0,1.5-1,1.1-2.1a1.97,1.97,0,0,0-1.7-1.3A5.979,5.979,0,0,0,4,9,24.2,24.2,0,0,1,2.8,4,4.321,4.321,0,0,1,4.6,2.1a2.768,2.768,0,0,1,1.3-.3,2.22,2.22,0,0,1,.9.1,43.981,43.981,0,0,0,5.8,16.2,1.644,1.644,0,0,0-.9,2,1.675,1.675,0,0,0,2.1,1l.6-.3A32.665,32.665,0,0,0,33.7,33.4a93.258,93.258,0,0,0,19.8,2.4,1.9,1.9,0,0,0,1.3,2.1,1.957,1.957,0,0,0,2.3-.9l.3-.6a1.268,1.268,0,0,0,.1-.6c1.7,0,3.3-.1,4.9-.2a75.445,75.445,0,0,0,11.1-1.4l-.2,2.4,1.6,2a27.156,27.156,0,0,1-4.1,3.6c-.1,0-.1.1-.2.1a8.65,8.65,0,0,1-1,.7l2.1-2.3a.919.919,0,1,0-1.3-1.3l-6,6.3a32.788,32.788,0,0,1-4.5,1.7l3.5-3.7a.919.919,0,0,0-1.3-1.3l-5.5,5.9v.1c-1.1.3-2.3.5-3.5.7L56.9,45a.919.919,0,0,0-1.3-1.3l-4.4,4.7a1.02,1.02,0,0,0-.2.9c-1.3.2-2.6.3-3.9.4L51,45.5a.919.919,0,0,0-1.3-1.3l-4,4.2a1.051,1.051,0,0,0,0,1.3,5.7,5.7,0,0,0-1.3.1H41.6l4-4.2a.919.919,0,1,0-1.3-1.3l-4,4.3c-.3.6-.3,1.1,0,1.4-1.1,0-2.2-.1-3.4-.2h-.3l3.9-4.2a.919.919,0,0,0-1.3-1.3l-4.3,4.6a.735.735,0,0,0-.2.6c-1-.1-1.9-.2-2.9-.3l3.9-4.1a.919.919,0,1,0-1.3-1.3l-4.6,4.9-.1.1a20.481,20.481,0,0,1-2.4-.5L31,44.4a.919.919,0,1,0-1.3-1.3l-4.3,4.6-.1.1c-.8-.2-1.5-.4-2.3-.6l3.5-3.7a.919.919,0,1,0-1.3-1.3l-3.9,4.2-.1.1c-.7-.3-1.4-.5-2.1-.8l3.2-3.4A.919.919,0,1,0,21,41l-3.6,3.8a11.4,11.4,0,0,1-1.9-1l2.8-3a1.051,1.051,0,0,0,0-1.3,1.051,1.051,0,0,0-1.3,0l-3,3.2c-.6-.4-1.2-.8-1.7-1.2L14.7,39a1.051,1.051,0,0,0,0-1.3,1.051,1.051,0,0,0-1.3,0L10.6,41c-.4-.4-.9-.8-1.4-1.3Z"/>
      <path id="Path_7" data-name="Path 7" d="M29.7,36.1a2.069,2.069,0,0,1,2.7,1.2,1.845,1.845,0,0,1-1.3,2.5,1.962,1.962,0,0,1-2.6-1.2,2.217,2.217,0,0,1,1.2-2.5Z"/>
    </g>
    <path id="Path_8" data-name="Path 8" class="cls-1" d="M1.1,83.6v.3a.9.9,0,0,0,.1.5.9.9,0,0,0,.1.5V85c.1.5.2.9.3,1.4a17.015,17.015,0,0,0,1,3.2,25.124,25.124,0,0,0,6.1,9.1.1.1,0,0,1,.1.1c5.5,5.2,14.3,9.4,28.2,10.3,17.7,1.2,28.4-3.6,34.3-7.8.1,0,.1-.1.2-.1a22.738,22.738,0,0,0,5.7-5.6l-.2-.8-1-3.1-.1-.3-.1-.3A72.081,72.081,0,0,1,62.4,93c-1.6.1-3.3.2-5.1.2H53.9A100.374,100.374,0,0,1,34,90.8,31.56,31.56,0,0,1,15,78.3a12.735,12.735,0,0,1-1.3-1.9,42.78,42.78,0,0,1-6-16.8,4.3,4.3,0,0,0-3.5.1,5.2,5.2,0,0,0-2.3,2.5,24.921,24.921,0,0,0,1.3,5.4,5.548,5.548,0,0,1,.3,2.5,8.507,8.507,0,0,1-.9,3.1A18.145,18.145,0,0,0,1.1,83.6Z"/>
    <g id="Group_8" data-name="Group 8">
      <path id="Path_9" data-name="Path 9" class="cls-2" d="M.2,83.6v.9a.749.749,0,0,0,.1.5v.2l.3,1.5c.3,1.1.6,2.3,1,3.4A26.321,26.321,0,0,0,8,99.4c6.4,6.1,16.1,9.7,28.7,10.6,2.7.2,5.3.2,7.8.2A55.5,55.5,0,0,0,64.6,106h.1a.713.713,0,0,0,.6-.3l.1-.1a36.4,36.4,0,0,0,6.1-3.6l.1-.1a25.276,25.276,0,0,0,6-5.8.755.755,0,0,0,.1-.8l-1.2-3.8-.2-.6a.863.863,0,0,0-1.1-.6A83.157,83.157,0,0,1,62,92.1c-1,.1-2.1.1-3.1.1H53.7a93.257,93.257,0,0,1-19.8-2.4A30.407,30.407,0,0,1,15.4,77.7l-1.2-1.8A42.7,42.7,0,0,1,8.3,59.5a.752.752,0,0,0-.5-.7,7.4,7.4,0,0,0-2.2-.4,4.552,4.552,0,0,0-2,.5A5.554,5.554,0,0,0,.9,62c.1,0,.1.2.1.3a24.788,24.788,0,0,0,1.3,5.6,8.918,8.918,0,0,1,.3,2.2,9.849,9.849,0,0,1-.8,2.8l-.1.2c-1,2.2-2.1,5-1.5,10.5Zm9,14.5L9.1,98,11,96a1.051,1.051,0,0,0,0-1.3,1.051,1.051,0,0,0-1.3,0l-1.9,2a18.258,18.258,0,0,1-1.3-1.6L8,93.5a1.051,1.051,0,0,0,0-1.3,1.051,1.051,0,0,0-1.3,0L5.5,93.5a11.781,11.781,0,0,1-1.1-1.9l1-1.1a1.051,1.051,0,0,0,0-1.3,1.062,1.062,0,0,0-1.3.2l-.5.5a1.421,1.421,0,0,1-.2-.6,7.494,7.494,0,0,1-.5-1.6l.5-.6a1.051,1.051,0,0,0,0-1.3.955.955,0,0,0-1-.2c-.1-.3-.1-.6-.2-.9v-.2a1.087,1.087,0,0,0-.1-.5v-.8c-.5-5.1.5-7.7,1.4-9.7a1.7,1.7,0,0,0,1.4,0A1.845,1.845,0,0,0,6.2,71a1.97,1.97,0,0,0-1.7-1.3A9.3,9.3,0,0,0,4.1,67a35.048,35.048,0,0,1-1.2-5,5.282,5.282,0,0,1,1.7-1.5,2.768,2.768,0,0,1,1.3-.3,2.22,2.22,0,0,1,.9.1,43.981,43.981,0,0,0,5.8,16.2,1.644,1.644,0,0,0-.9,2,1.675,1.675,0,0,0,2.1,1l.6-.3A32.665,32.665,0,0,0,33.7,91.8a93.257,93.257,0,0,0,19.8,2.4,1.9,1.9,0,0,0,1.3,2.1,1.957,1.957,0,0,0,2.3-.9l.3-.6a1.268,1.268,0,0,0,.1-.6c1.7,0,3.3-.1,4.9-.2a75.445,75.445,0,0,0,11.1-1.4L73.3,95l1.6,2a27.156,27.156,0,0,1-4.1,3.6c-.1,0-.1.1-.2.1a8.65,8.65,0,0,1-1,.7l2.1-2.3a.919.919,0,0,0-1.3-1.3l-6,6.3a32.788,32.788,0,0,1-4.5,1.7l3.5-3.7a.919.919,0,0,0-1.3-1.3l-5.5,5.9v.1c-1.1.3-2.3.5-3.5.7l3.8-4.1a.919.919,0,0,0-1.3-1.3l-4.4,4.7a1.02,1.02,0,0,0-.2.9c-1.3.2-2.6.3-3.9.4l3.9-4.2a.919.919,0,0,0-1.3-1.3l-4,4.2a1.051,1.051,0,0,0,0,1.3,5.7,5.7,0,0,0-1.3.1H41.6l4-4.2a.919.919,0,0,0-1.3-1.3l-4,4.3a.909.909,0,0,0-.1,1.1c-1.1,0-2.2-.1-3.4-.2h-.3l3.9-4.2a.919.919,0,0,0-1.3-1.3L34.8,107a.735.735,0,0,0-.2.6c-1-.1-1.9-.2-2.9-.3l3.9-4.1a.919.919,0,1,0-1.3-1.3l-4.6,4.9-.1.1a20.481,20.481,0,0,1-2.4-.5l3.7-3.9a.919.919,0,1,0-1.3-1.3l-4.3,4.6-.1.1c-.8-.2-1.5-.4-2.3-.6l3.5-3.7a.919.919,0,1,0-1.3-1.3l-3.9,4.2-.1.1c-.7-.3-1.4-.5-2.1-.8l3.2-3.4a.919.919,0,0,0-1.3-1.3l-3.6,3.8a11.4,11.4,0,0,1-1.9-1l2.8-3a1.051,1.051,0,0,0,0-1.3,1.051,1.051,0,0,0-1.3,0l-3,3.2c-.6-.4-1.2-.8-1.7-1.2l2.4-2.5a1.051,1.051,0,0,0,0-1.3,1.051,1.051,0,0,0-1.3,0l-2.5,2.6c-.6.6-1.1.2-1.6-.3Z"/>
      <path id="Path_10" data-name="Path 10" class="cls-2" d="M29.7,94.5a2.069,2.069,0,0,1,2.7,1.2,1.845,1.845,0,0,1-1.3,2.5A1.962,1.962,0,0,1,28.5,97a2.109,2.109,0,0,1,1.2-2.5Z"/>
    </g>
  </g>
</svg>
