<svg xmlns="http://www.w3.org/2000/svg" viewBox="0 0 540 267"><defs><style>.cls-1{fill:#fff;opacity:0}.cls-2{fill:#262e58}</style></defs><g id="Group_45" data-name="Group 45" transform="translate(-231 -765)"><path id="Rectangle_11" data-name="Rectangle 11" class="cls-1" transform="translate(231 765)" d="M0 0h540v267H0z"/><path id="Path_6" data-name="Path 6" class="cls-2" d="M39.349-62.987H6.864v-6.864h32.485zm7.928-7.4h8.508l29.39 76.429h-8.508zM130.421 7.3H86.142V0h44.279zm6.623-35.868a74.737 74.737 0 0 1 2.925-20.979 60.944 60.944 0 0 1 8.725-18.272q5.8-8.218 12.037-11.6l1.837 5.9q-7.058 5.414-11.577 16.532a71.669 71.669 0 0 0-4.955 24.9l-.048 4.109q0 18.659 6.816 32.388a38.682 38.682 0 0 0 9.765 12.858l-1.839 5.452q-6.429-3.577-12.278-11.988Q137.043-5.7 137.043-28.569zm32.678-38.237l6.719-2.707q4.882 8.218 10.393 25.765l-7.4 2.562q-5.072-17.403-9.713-25.621zm21.27-5.269l6.768-2.272q4.737 9.33 8.991 25.427l-7.351 2.464Q195-64 190.991-72.075zm-8.218 70.77A68.31 68.31 0 0 0 202.4-13.245a57.852 57.852 0 0 0 12.568-15.082q8.121-14.6 10.2-43.748l7.928 1.692q-2.852 30.841-11.7 45.826-10.924 18.563-33.644 28.618zm82.951-26.78A74.773 74.773 0 0 1 262.9-7.42a61.107 61.107 0 0 1-8.653 18.248q-5.825 8.363-12.206 11.892l-1.885-5.462q7.444-5.7 11.964-17.717a76.645 76.645 0 0 0 4.616-26.659v-1.547a79.578 79.578 0 0 0-2.127-18.877 63.708 63.708 0 0 0-5.922-15.638 36.12 36.12 0 0 0-8.532-10.78l1.885-5.462q6.381 3.529 12.157 11.795a61.238 61.238 0 0 1 8.651 18.227 76.5 76.5 0 0 1 2.876 21.315zM317.206 7.3h-44.279V0h44.279zm8.75-1.257h-7.686l29.39-76.426h7.64zm71.591-69.029h-32.484v-6.864h32.484z" transform="translate(299 927)"/></g></svg>